<svg width="80" height="80" viewBox="0 0 80 80" xmlns="http://www.w3.org/2000/svg" xmlns:xlink="http://www.w3.org/1999/xlink"><title>Group 2</title><defs><path d="M33 66c18.225 0 33-14.775 33-33S51.225 0 33 0 0 14.775 0 33s14.775 33 33 33z" id="d"/><filter x="-50%" y="-50%" width="200%" height="200%" filterUnits="objectBoundingBox" id="c"><feMorphology radius=".66" operator="dilate" in="SourceAlpha" result="shadowSpreadOuter1"/><feOffset dy="2" in="shadowSpreadOuter1" result="shadowOffsetOuter1"/><feGaussianBlur stdDeviation="3" in="shadowOffsetOuter1" result="shadowBlurOuter1"/><feComposite in="shadowBlurOuter1" in2="SourceAlpha" operator="out" result="shadowBlurOuter1"/><feColorMatrix values="0 0 0 0 0 0 0 0 0 0 0 0 0 0 0 0 0 0 0.0276551178 0" in="shadowBlurOuter1"/></filter><rect id="a" width="14.52" height="10.56" rx="1.32"/><mask id="e" x="0" y="0" width="14.52" height="10.56" fill="#fff"><use xlink:href="#a"/></mask><path id="b" d="M0 0h13.065l4.095 4.4v18.04H0z"/><mask id="f" x="0" y="0" width="17.16" height="22.44" fill="#fff"><use xlink:href="#b"/></mask></defs><g fill="none" fill-rule="evenodd"><g transform="translate(7 5)"><use fill="#000" filter="url(#c)" xlink:href="#d"/><use stroke="#F4F4F4" stroke-width="1.32" fill-opacity=".1" fill="#FFF" xlink:href="#d"/></g><g transform="translate(33.4 32.72)"><use stroke="#0B8CB5" mask="url(#e)" stroke-width="2.64" xlink:href="#a"/><path fill="#0B8CB5" d="M12.002 9.94H6.6l5.28 3.96z"/></g><g transform="translate(32.08 27.44)"><use stroke="#1A80BC" mask="url(#f)" stroke-width="2.64" fill="#FFF" xlink:href="#b"/><path d="M16.288 3.981C14.812 2.144 12.07.03 12.07.03v6.809h5.471s.223-1.02-1.253-2.857zM4.389 10.56h8.778v1.32H4.389zm0 2.64h8.778v1.32H4.389zm0 2.64h4.389v1.32H4.389zm0-11.88h4.389v1.32H4.389z" fill="#1A80BC"/></g></g></svg>